PathFileType	4	(X/Y/Z)	G:\TennisProject\Miami_Dimitrov_Sinner_masked_Sports2D\Miami_Dimitrov_Sinner_masked_Sports2D_m_person01.trc
DataRate	CameraRate	NumFrames	NumMarkers	Units	OrigDataRate	OrigDataStartFrame	OrigNumFrames
25	25	12	22	m	25	187	499
Frame#	Time	Hip			RHip			RKnee			RAnkle			RBigToe			RSmallToe			RHeel			LHip			LKnee			LAnkle			LBigToe			LSmallToe			LHeel			Neck			Head			Nose			RShoulder			RElbow			RWrist			LShoulder			LElbow			LWrist		
		X1	Y1	Z1	X2	Y2	Z2	X3	Y3	Z3	X4	Y4	Z4	X5	Y5	Z5	X6	Y6	Z6	X7	Y7	Z7	X8	Y8	Z8	X9	Y9	Z9	X10	Y10	Z10	X11	Y11	Z11	X12	Y12	Z12	X13	Y13	Z13	X14	Y14	Z14	X15	Y15	Z15	X16	Y16	Z16	X17	Y17	Z17	X18	Y18	Z18	X19	Y19	Z19	X20	Y20	Z20	X21	Y21	Z21	X22	Y22	Z22
187	7.48	14.929506571927705	-8.65307049833291	0.0	14.850508118155162	-8.686271286112365	0.0	14.248455698222925	-9.231558186533677	0.0	14.36561547164153	-9.971564931811805	0.0	13.935872782541608	-10.164160743142723	0.0	13.973206394327196	-10.089927624394669	0.0	14.488024594712794	-10.10702245679791	0.0	15.07194335310778	-8.74891642682297	0.0	14.59019421516513	-9.687531661456136	0.0	14.944731298018281	-10.736716656468934	0.0	14.513364737192983	-11.004469718532288	0.0	14.650016025037543	-11.044419115584434	0.0	15.071774864794325	-10.862271795058579	0.0	14.38136358348164	-7.35131968426084	0.0	14.178561497013094	-6.825639737627421	0.0	14.152229845605728	-7.1631822313858615	0.0	14.340403743149716	-7.514798315292123	0.0	14.12522798188745	-8.014222007918613	0.0	14.14124629363962	-7.980385320187895	0.0	14.56246641744685	-7.409758703562244	0.0	15.068667132358277	-7.6188865261213286	0.0	14.44855787270363	-7.610951764471592	0.0
188	7.5200000000000005	14.829047697896083	-8.578173902190498	0.0	14.672472005632603	-8.607425754456706	0.0	14.156210976171106	-9.156822788116191	0.0	14.307202066718881	-9.945032539822332	0.0	13.90359975567307	-10.170601285022343	0.0	13.923973135457741	-10.11090544361077	0.0	14.430965265731675	-10.093894991976022	0.0	14.994883286572605	-8.671248425690811	0.0	14.562425627429636	-9.62566453158478	0.0	14.883768304359503	-10.653939528824411	0.0	14.505655471830138	-11.011668278690495	0.0	14.63382966654463	-11.023900602134283	0.0	15.016112023587986	-10.76675104282921	0.0	14.3297673268917	-7.274279283635054	0.0	14.113108124327841	-6.730200360592126	0.0	14.108591461856479	-7.088158622454442	0.0	14.191884200320256	-7.4387040821709824	0.0	14.118045996413676	-7.864488639918109	0.0	14.123963026594337	-7.8825163720411515	0.0	14.563589343415458	-7.314435430822957	0.0	15.110218118345829	-7.571449003915057	0.0	14.511453215715141	-7.547700385266342	0.0
189	7.5600000000000005	14.76705688576756	-8.505074421987377	0.0	14.586701212876312	-8.50885804070216	0.0	14.112169240572259	-9.0698914356839	0.0	14.295494433581993	-9.90850021018174	0.0	13.92662295689907	-10.165333190766054	0.0	13.944420985665179	-10.110523269561	0.0	14.405014694088349	-10.068073245769272	0.0	14.930022460250393	-8.570673266032326	0.0	14.509855061763817	-9.521687438076551	0.0	14.80723502103969	-10.549140957867639	0.0	14.52615043618077	-10.995884203430556	0.0	14.637489246162444	-10.981258861829735	0.0	14.939072647490764	-10.62864455936578	0.0	14.311659867211397	-7.203129189741407	0.0	14.067053191280332	-6.624217962187867	0.0	14.108523844038412	-7.012674766787011	0.0	14.10976640683107	-7.335586655934174	0.0	14.100773802044944	-7.745966074770186	0.0	14.051504509840859	-7.822040296073715	0.0	14.57944263630629	-7.230780177338876	0.0	15.107155746109822	-7.556691048417868	0.0	14.507249268802042	-7.585585323832488	0.0
190	7.6000000000000005	14.739511545933048	-8.410891107618031	0.0	14.623374937679635	-8.402409991005095	0.0	14.138227950856681	-9.001703045041062	0.0	14.310208073651005	-9.871125693884435	0.0	13.961276460595766	-10.153338210692931	0.0	13.980094821532214	-10.101384297875962	0.0	14.404549573352938	-10.04754138134902	0.0	14.851798637998966	-8.450601228476865	0.0	14.440933790665191	-9.393917073494018	0.0	14.767505874123437	-10.416071296296774	0.0	14.625268373659742	-10.94458454553317	0.0	14.70806341397359	-10.901713013341181	0.0	14.9032526626314	-10.464591580684473	0.0	14.300862583222678	-7.087652776772821	0.0	14.046929676951805	-6.512872482147872	0.0	14.092355061829075	-6.908169477113819	0.0	14.13563469003973	-7.199229362297966	0.0	14.057016914366722	-7.604268643750755	0.0	13.91184094756023	-7.7694374755663285	0.0	14.56105994180962	-7.151515964892967	0.0	15.03322544622438	-7.563870966514291	0.0	14.455674487212613	-7.711499560068104	0.0
191	7.640000000000001	14.715964280636715	-8.281759445591213	0.0	14.701396986669979	-8.28300119227938	0.0	14.216159404050277	-8.962846636039872	0.0	14.328397697264773	-9.855433674510522	0.0	13.971551050897375	-10.144073876589403	0.0	13.999117679437472	-10.095592851646314	0.0	14.426989981289191	-10.044868573730028	0.0	14.738927955076184	-8.316521493433443	0.0	14.39150371180651	-9.270621489527151	0.0	14.820194255868309	-10.26359558486882	0.0	14.807992679468056	-10.825401098689682	0.0	14.858605636554183	-10.755876235401127	0.0	14.973062234982299	-10.305334545075127	0.0	14.292124387333152	-6.928571212829417	0.0	14.032749319216606	-6.4110325651449545	0.0	14.041107283266323	-6.789260634879227	0.0	14.286177458430336	-7.041716601473925	0.0	13.99788221849841	-7.438128130017055	0.0	13.730114046298299	-7.70813400921764	0.0	14.486436743038261	-7.071530078529247	0.0	14.868893895360848	-7.58659450865113	0.0	14.352556036091691	-7.851628627167108	0.0
192	7.68	14.681905220650743	-8.140868433668848	0.0	14.756278724347089	-8.150537466243911	0.0	14.301968774424177	-8.941412705998639	0.0	14.328914606416566	-9.858082875872336	0.0	13.94985317112973	-10.137532091332996	0.0	13.997650306989474	-10.08865181511234	0.0	14.440215163871532	-10.042793680630089	0.0	14.604800294377224	-8.182390627629736	0.0	14.393906084888508	-9.16612636711276	0.0	14.973443917188144	-10.105467882935516	0.0	15.037859500348503	-10.625521908931427	0.0	15.066335075987695	-10.543377826687822	0.0	15.150730107850595	-10.15752264456193	0.0	14.297391970635372	-6.789800772796358	0.0	13.99559357504463	-6.331735522472059	0.0	13.98848321347293	-6.7075419408707875	0.0	14.491776618753168	-6.891330431869299	0.0	14.029343171618354	-7.328831133973564	0.0	13.649022087088893	-7.692270248280048	0.0	14.37007424668556	-7.0108537014932635	0.0	14.630603866021714	-7.614513013396014	0.0	14.225821130545988	-7.936685659475624	0.0
193	7.72	14.641071999286384	-8.03726543124386	0.0	14.775422498156013	-8.039901645691502	0.0	14.366698623034027	-8.93375089402223	0.0	14.319818537909406	-9.865192383115314	0.0	13.91816030083127	-10.128867317521898	0.0	13.9909031493779	-10.081390261704053	0.0	14.431000872095623	-10.031306558190149	0.0	14.496417491657251	-8.07977533329814	0.0	14.445432500647978	-9.106904604516355	0.0	15.17970181757933	-9.94808711625631	0.0	15.294527694593517	-10.40146118298095	0.0	15.313692555308494	-10.32461240016328	0.0	15.374719163046779	-9.991841543901721	0.0	14.310359455710845	-6.717670228314559	0.0	13.950738023340826	-6.269065199861819	0.0	13.967401675599664	-6.658419274021552	0.0	14.635937129975414	-6.785730249154214	0.0	14.26192327074217	-7.2693211468273615	0.0	13.860931887947588	-7.663903891642828	0.0	14.254258678494198	-6.980029921225621	0.0	14.383699555645444	-7.634886896544365	0.0	14.106220688853165	-7.975181983078118	0.0
194	7.76	14.590344459309419	-8.001198185396216	0.0	14.734116536160647	-7.997474137642375	0.0	14.408252405233036	-8.94909203931423	0.0	14.323221881251984	-9.86680571416051	0.0	13.898030229636612	-10.122311765916995	0.0	13.987911936106416	-10.079552117556293	0.0	14.426158461429251	-10.027153357730812	0.0	14.443756949592656	-8.042506707402833	0.0	14.51229018315913	-9.105191831401788	0.0	15.367804382812423	-9.790992829635524	0.0	15.554602147008007	-10.221136361408895	0.0	15.568161189266437	-10.155472412774722	0.0	15.564711106312034	-9.790802041532693	0.0	14.305607405561785	-6.673549766454494	0.0	13.949350103922326	-6.2086106857545085	0.0	13.975732277940335	-6.582897113320374	0.0	14.688682389595286	-6.708607167936399	0.0	14.631053737240226	-7.050579661789924	0.0	14.392699505297442	-7.2916070020988615	0.0	14.178767098867896	-6.955385160578803	0.0	14.213841077568212	-7.642775378283342	0.0	13.976080573857546	-8.027242828219538	0.0
195	7.8	14.532785427276693	-8.003401029694233	0.0	14.636420233385326	-7.999928539423424	0.0	14.423451722000657	-8.966011275802895	0.0	14.337110753375185	-9.863810279150066	0.0	13.893502776028441	-10.125540462287523	0.0	13.983933332762112	-10.08222028106037	0.0	14.437784137999694	-10.041366977691132	0.0	14.43221654894541	-8.04822140519993	0.0	14.559900203721396	-9.111539918935021	0.0	15.485581179100205	-9.63875845572656	0.0	15.761112197817141	-10.084527148875063	0.0	15.764406316777135	-10.023071725142065	0.0	15.671850974448288	-9.584328918012153	0.0	14.283548271474817	-6.60930291337235	0.0	13.994872708290902	-6.150525307645594	0.0	13.991413925958769	-6.474430956810466	0.0	14.690542885739848	-6.605530620045433	0.0	14.957429147712835	-6.60290742824059	0.0	15.020424582694686	-6.531984429186614	0.0	14.151403233879511	-6.922071117159154	0.0	14.15057300361021	-7.635566191106776	0.0	13.86593657441167	-8.103563292099482	0.0
196	7.84	14.488585301440073	-7.983218810660544	0.0	14.558760061498411	-7.971431762232293	0.0	14.408796739138966	-8.948449616131265	0.0	14.342218057140244	-9.864305999525506	0.0	13.894707818593814	-10.132746050294523	0.0	13.973832542122983	-10.086234162110143	0.0	14.44484772755657	-10.054959533247315	0.0	14.429620743677857	-8.027492652068224	0.0	14.584143285428837	-9.07914791235497	0.0	15.530031469228366	-9.512492897364977	0.0	15.875515308407877	-9.975757475438913	0.0	15.86220542232111	-9.913131324479407	0.0	15.705865895761223	-9.424764605402379	0.0	14.273548330968405	-6.5404077803730765	0.0	14.039718161042954	-6.101612715006691	0.0	14.01064354720501	-6.381276104646603	0.0	14.673373215497216	-6.484966143087076	0.0	15.147105324975831	-6.214269667542867	0.0	15.473522230203688	-5.918862554745154	0.0	14.154407656696426	-6.890441613791286	0.0	14.158850956758457	-7.600561935024422	0.0	13.87426985422186	-8.150646134657908	0.0
197	7.88	14.46694496355022	-7.923001450906083	0.0	14.542325444776086	-7.898647953899162	0.0	14.382911612631514	-8.901356959568554	0.0	14.32990896503853	-9.86166861133343	0.0	13.890691777719097	-10.132845429572805	0.0	13.957854731200802	-10.088470049303712	0.0	14.431377360095574	-10.040960956304787	0.0	14.420417790993957	-7.958700019122649	0.0	14.602644673453755	-9.018502741880084	0.0	15.536016588846376	-9.440941009863328	0.0	15.894054706350548	-9.918869795824323	0.0	15.86921855845201	-9.861428890516803	0.0	15.70968172720858	-9.352665618682446	0.0	14.283949953170923	-6.488455070724512	0.0	14.065039025131169	-6.056670969004363	0.0	14.04298357452941	-6.3194172007333975	0.0	14.657163816170247	-6.403789827426959	0.0	15.224206189993058	-6.086949285096023	0.0	15.682518963623304	-5.7481204336432326	0.0	14.165585698394516	-6.855653172106244	0.0	14.206501093590115	-7.515343491283573	0.0	14.041413621757462	-8.110362260273886	0.0
198	7.92	14.460619537998193	-7.857809512183033	0.0	14.545006209428212	-7.830143432113809	0.0	14.365136804091577	-8.84816982563223	0.0	14.31120262785938	-9.833866630287991	0.0	13.884524012094234	-10.121717128912785	0.0	13.94524733759377	-10.078965393067392	0.0	14.410662126845855	-9.99305731755446	0.0	14.416619253436066	-7.882689027230635	0.0	14.61818449877125	-8.956249852773727	0.0	15.525270114789247	-9.439355081892714	0.0	15.813903477078727	-9.924410512139202	0.0	15.799081933332161	-9.87585202362353	0.0	15.703863098677886	-9.380720194896702	0.0	14.297028470799717	-6.448615965452102	0.0	14.08567034118852	-6.010227811549734	0.0	14.07520046712596	-6.276675837317019	0.0	14.656492313625877	-6.377248421011075	0.0	15.244022113288946	-6.112979746738019	0.0	15.740344659815289	-5.786747264693603	0.0	14.171103590046233	-6.80544189929832	0.0	14.280967293734493	-7.385358786983609	0.0	14.301461121282514	-7.967381652685984	0.0
